<svg width="80" height="85" viewBox="0 0 80 85" fill="none" xmlns="http://www.w3.org/2000/svg">
<path d="M4.49219 82.2051C3.65885 82.2051 3.00456 81.9967 2.5293 81.5801C2.06055 81.1634 1.73177 80.5547 1.54297 79.7539C1.35417 78.9466 1.25977 77.9603 1.25977 76.7949V69.7734C1.25977 69.0312 1.30208 68.3477 1.38672 67.7227C1.47786 67.0911 1.63737 66.5443 1.86523 66.082C2.09961 65.6133 2.43164 65.252 2.86133 64.998C3.29753 64.7376 3.86393 64.6074 4.56055 64.6074C5.24414 64.6074 5.79102 64.7344 6.20117 64.9883C6.61133 65.2422 6.92057 65.597 7.12891 66.0527C7.33724 66.5085 7.47396 67.0488 7.53906 67.6738C7.61068 68.2923 7.64648 68.9727 7.64648 69.7148V71.4238H5.88867V69.627C5.88867 68.4681 5.81055 67.5924 5.6543 67C5.49805 66.4076 5.13021 66.1113 4.55078 66.1113C3.94531 66.1113 3.53841 66.4108 3.33008 67.0098C3.12826 67.6022 3.02734 68.4714 3.02734 69.6172V76.8145C3.02734 77.7454 3.06315 78.5007 3.13477 79.0801C3.21289 79.653 3.35612 80.0697 3.56445 80.3301C3.7793 80.5905 4.08854 80.7207 4.49219 80.7207C5.07812 80.7207 5.45573 80.418 5.625 79.8125C5.80078 79.207 5.88867 78.2077 5.88867 76.8145V75.1445H7.65625V76.7949C7.65625 77.9668 7.56836 78.9564 7.39258 79.7637C7.2168 80.5645 6.90104 81.1732 6.44531 81.5898C5.98958 82 5.33854 82.2051 4.49219 82.2051ZM11.9434 82V74.6367L8.89648 64.8125H10.6641L12.8125 72.0684H12.8516L14.707 64.8125H16.4941L13.7109 74.6367V82H11.9434ZM18.1641 82V64.8125H21.0059C21.8848 64.8125 22.5586 64.9427 23.0273 65.2031C23.5026 65.4635 23.8281 65.877 24.0039 66.4434C24.1862 67.0098 24.2806 67.752 24.2871 68.6699V68.9727C24.2871 69.9557 24.209 70.7565 24.0527 71.375C23.903 71.987 23.5775 72.4362 23.0762 72.7227C23.4733 72.8919 23.776 73.1816 23.9844 73.5918C24.1992 74.002 24.3457 74.4935 24.4238 75.0664C24.5085 75.6328 24.5508 76.235 24.5508 76.873V77.2148C24.5378 78.3151 24.4336 79.2201 24.2383 79.9297C24.0495 80.6393 23.724 81.1634 23.2617 81.502C22.806 81.834 22.1647 82 21.3379 82H18.1641ZM19.9316 80.5352H21.3086C21.6992 80.5352 21.9987 80.4342 22.207 80.2324C22.4219 80.0306 22.5716 79.6758 22.6562 79.168C22.7409 78.6602 22.7832 77.9505 22.7832 77.0391V76.6387C22.7767 75.5059 22.6855 74.6953 22.5098 74.207C22.334 73.7122 21.9564 73.4648 21.377 73.4648H19.9316V80.5352ZM19.9316 72.0781H21.1523C21.4388 72.0781 21.6732 72.0488 21.8555 71.9902C22.0378 71.9316 22.1777 71.8047 22.2754 71.6094C22.373 71.4141 22.4382 71.1178 22.4707 70.7207C22.5098 70.3171 22.5293 69.7734 22.5293 69.0898V68.7578C22.5293 68.0417 22.4772 67.5078 22.373 67.1562C22.2689 66.8047 22.1029 66.5736 21.875 66.4629C21.6471 66.3522 21.3444 66.2969 20.9668 66.2969H19.9316V72.0781ZM26.9141 82V64.8125H31.7871V66.248H28.6816V72.498H31.6113V73.9629H28.6816V80.5547H31.7871V82H26.9141ZM34.1211 82V64.8125H37.4219C38.3333 64.8125 39.0072 64.9688 39.4434 65.2812C39.8796 65.5872 40.1628 66.0592 40.293 66.6973C40.4232 67.3353 40.4883 68.1458 40.4883 69.1289C40.4883 70.2096 40.3776 71.0723 40.1562 71.7168C39.9349 72.3613 39.5182 72.7715 38.9062 72.9473C39.2318 72.9993 39.4954 73.1393 39.6973 73.3672C39.9056 73.5885 40.0651 73.9466 40.1758 74.4414C40.293 74.9362 40.3743 75.6068 40.4199 76.4531C40.4655 77.293 40.4883 78.3607 40.4883 79.6562C40.4883 79.7865 40.4883 79.9362 40.4883 80.1055C40.4883 80.2747 40.4915 80.4505 40.498 80.6328C40.5046 80.8151 40.5143 80.9941 40.5273 81.1699C40.5404 81.3392 40.5566 81.4954 40.5762 81.6387C40.6022 81.7819 40.6315 81.9023 40.6641 82H38.9062C38.8737 81.9349 38.8477 81.8242 38.8281 81.668C38.8086 81.5052 38.7891 81.2871 38.7695 81.0137C38.7565 80.7337 38.7467 80.3822 38.7402 79.959C38.7337 79.5358 38.7305 79.028 38.7305 78.4355C38.7305 77.8431 38.7305 77.153 38.7305 76.3652C38.7305 75.6556 38.7044 75.1152 38.6523 74.7441C38.6068 74.3665 38.4798 74.1061 38.2715 73.9629C38.0632 73.8197 37.7214 73.7318 37.2461 73.6992L35.8887 73.6211V82H34.1211ZM35.8789 72.3613H37.2754C37.666 72.3613 37.9655 72.2897 38.1738 72.1465C38.3887 71.9967 38.5352 71.6908 38.6133 71.2285C38.6914 70.7663 38.7305 70.0632 38.7305 69.1191V68.9922C38.7305 68.2109 38.6947 67.625 38.623 67.2344C38.5514 66.8372 38.4147 66.5736 38.2129 66.4434C38.0111 66.3066 37.7116 66.2383 37.3145 66.2383H35.8789V72.3613ZM45.4199 82.2051C44.3457 82.2051 43.5807 81.873 43.125 81.209C42.6758 80.5449 42.4512 79.5423 42.4512 78.2012V76.2969H44.1992V78.0742C44.1992 78.5495 44.2155 78.9889 44.248 79.3926C44.2806 79.7897 44.3783 80.112 44.541 80.3594C44.7038 80.6003 44.9772 80.7207 45.3613 80.7207C45.752 80.7207 46.0254 80.6035 46.1816 80.3691C46.3444 80.1283 46.4421 79.7962 46.4746 79.373C46.5072 78.9499 46.5234 78.4648 46.5234 77.918V64.8125H48.291V77.8691C48.291 79.321 48.0599 80.4082 47.5977 81.1309C47.1419 81.847 46.416 82.2051 45.4199 82.2051ZM54.375 82.2051C53.5482 82.2051 52.8971 82.0391 52.4219 81.707C51.9531 81.3685 51.6211 80.8574 51.4258 80.1738C51.2305 79.4902 51.1328 78.6276 51.1328 77.5859V64.8125H52.9004V77.5371C52.9004 78.2077 52.9232 78.7839 52.9688 79.2656C53.0208 79.7409 53.151 80.1022 53.3594 80.3496C53.5677 80.597 53.9062 80.7207 54.375 80.7207C54.8568 80.7207 55.1986 80.597 55.4004 80.3496C55.6022 80.1022 55.7227 79.7409 55.7617 79.2656C55.8073 78.7904 55.8301 78.2174 55.8301 77.5469V64.8125H57.5879V77.5859C57.5879 78.6276 57.4935 79.4902 57.3047 80.1738C57.1159 80.8574 56.7871 81.3685 56.3184 81.707C55.8561 82.0391 55.2083 82.2051 54.375 82.2051ZM60.459 82V64.8125H62.2266V82H60.459ZM68.2422 82.2051C67.4089 82.2051 66.7546 81.9967 66.2793 81.5801C65.8105 81.1634 65.4818 80.5547 65.293 79.7539C65.1042 78.9466 65.0098 77.9603 65.0098 76.7949V69.7734C65.0098 69.0312 65.0521 68.3477 65.1367 67.7227C65.2279 67.0911 65.3874 66.5443 65.6152 66.082C65.8496 65.6133 66.1816 65.252 66.6113 64.998C67.0475 64.7376 67.6139 64.6074 68.3105 64.6074C68.9941 64.6074 69.541 64.7344 69.9512 64.9883C70.3613 65.2422 70.6706 65.597 70.8789 66.0527C71.0872 66.5085 71.224 67.0488 71.2891 67.6738C71.3607 68.2923 71.3965 68.9727 71.3965 69.7148V71.4238H69.6387V69.627C69.6387 68.4681 69.5605 67.5924 69.4043 67C69.248 66.4076 68.8802 66.1113 68.3008 66.1113C67.6953 66.1113 67.2884 66.4108 67.0801 67.0098C66.8783 67.6022 66.7773 68.4714 66.7773 69.6172V76.8145C66.7773 77.7454 66.8132 78.5007 66.8848 79.0801C66.9629 79.653 67.1061 80.0697 67.3145 80.3301C67.5293 80.5905 67.8385 80.7207 68.2422 80.7207C68.8281 80.7207 69.2057 80.418 69.375 79.8125C69.5508 79.207 69.6387 78.2077 69.6387 76.8145V75.1445H71.4062V76.7949C71.4062 77.9668 71.3184 78.9564 71.1426 79.7637C70.9668 80.5645 70.651 81.1732 70.1953 81.5898C69.7396 82 69.0885 82.2051 68.2422 82.2051ZM74.0039 82V64.8125H78.877V66.248H75.7715V72.498H78.7012V73.9629H75.7715V80.5547H78.877V82H74.0039Z" fill="#565656"/>
<g filter="url(#filter0_d_762_28913)">
<path d="M38.7911 7.26562H40.9984C41.0465 7.28469 41.0961 7.29964 41.1467 7.31032C42.3209 7.46058 43.5103 7.53553 44.6671 7.77064C49.7195 8.81035 54.2987 11.4596 57.7185 15.3212C61.1383 19.1828 63.2144 24.0488 63.6356 29.1898C63.6649 29.5343 63.7013 29.8781 63.7343 30.2223V32.0433C63.7136 32.1209 63.6987 32.1998 63.6897 32.2796C63.6254 33.8041 63.4077 35.3182 63.0399 36.7991C61.9525 41.2652 59.5906 45.319 56.2416 48.4673C52.2961 52.2166 47.1779 54.4898 41.7508 54.9034C41.4076 54.9286 41.0653 54.9674 40.7225 55H39.0118C38.9536 54.9809 38.8942 54.9659 38.8339 54.9553C37.7479 54.8374 36.6477 54.7956 35.5779 54.593C29.6515 53.547 24.3529 50.2654 20.7762 45.4257C18.0684 41.8728 16.444 37.6135 16.0982 33.1598C16.071 32.8423 16.033 32.5258 16 32.2089V30.0015C16.0163 29.9141 16.0368 29.8272 16.0484 29.7392C16.2049 28.5564 16.2833 27.3572 16.529 26.1933C17.5887 21.1926 20.2259 16.6642 24.0525 13.275C27.8791 9.88576 32.6929 7.81472 37.7849 7.36682C38.1206 7.33613 38.4557 7.29949 38.7911 7.26562Z" fill="white"/>
</g>
<path d="M38.7912 7.26611H40.9986C41.0466 7.28518 41.0962 7.30013 41.1468 7.31081C42.321 7.46107 43.5104 7.53602 44.6673 7.77113C49.7196 8.81083 54.2989 11.4601 57.7187 15.3217C61.1384 19.1833 63.2145 24.0493 63.6357 29.1903C63.665 29.5348 63.7014 29.8786 63.7345 30.2228V32.0438C63.7138 32.1214 63.6988 32.2003 63.6898 32.2801C63.6255 33.8046 63.4078 35.3187 63.04 36.7996C61.9526 41.2657 59.5907 45.3195 56.2417 48.4678C52.2962 52.217 47.178 54.4903 41.751 54.9039C41.4077 54.9291 41.0654 54.9679 40.7227 55.0005H39.0119C38.9538 54.9813 38.8943 54.9664 38.834 54.9557C37.748 54.8379 36.6478 54.7961 35.578 54.5935C29.6516 53.5475 24.353 50.2659 20.7763 45.4262C18.0685 41.8732 16.4441 37.614 16.0983 33.1602C16.0711 32.8428 16.0331 32.5263 16.0001 32.2094V30.002C16.0165 29.9146 16.0369 29.8277 16.0485 29.7397C16.205 28.5569 16.2834 27.3577 16.5292 26.1938C17.5888 21.1931 20.2261 16.6647 24.0527 13.2755C27.8793 9.88625 32.693 7.81521 37.785 7.3673C38.1207 7.33662 38.4558 7.29998 38.7912 7.26611ZM40.0369 52.9018C41.981 52.8758 43.9142 52.6065 45.7914 52.1002C49.7941 50.9646 53.1393 48.7477 55.9909 45.7664C58.5125 43.1304 60.2107 40.0036 61.3265 36.5438C61.9657 34.7363 62.188 32.8078 61.9768 30.9023C61.6497 28.4251 60.4193 26.6574 58.0832 25.6842C56.5881 25.0862 55.0023 24.7467 53.3934 24.6802C51.2349 24.504 49.063 24.7619 47.0059 25.4387C44.5464 26.3002 42.0888 27.1675 39.6333 28.0405C38.5892 28.4295 37.4787 28.6093 36.3651 28.5698C35.3946 28.4883 34.4396 28.2759 33.526 27.9384C30.5365 26.9724 27.4895 26.4191 24.333 26.7489C22.6542 26.9113 21.0285 27.4252 19.5614 28.2571C18.5257 28.8496 17.815 29.7156 17.689 30.928C17.6296 31.614 17.6432 32.3044 17.7294 32.9875C18.0442 35.8719 18.9293 38.6649 20.3332 41.2041C22.3675 44.8663 25.3606 47.9054 28.9913 49.9954C32.3106 52.0213 36.1503 53.0316 40.0368 52.9018H40.0369Z" fill="#74BCE8"/>
<g filter="url(#filter1_d_762_28913)">
<path d="M53.6455 5.28172C52.6708 6.57105 50.4818 6.40049 49.4499 5.48653C49.1341 5.22035 48.8744 4.89406 48.6858 4.52663C48.4973 4.15921 48.3836 3.75797 48.3515 3.34623C48.3194 2.9345 48.3694 2.52049 48.4986 2.12825C48.6279 1.73602 48.8338 1.37338 49.1045 1.06143C49.3706 0.752798 49.6958 0.500462 50.0609 0.319217C50.4259 0.137972 50.8235 0.0314792 51.2302 0.0059899C51.637 -0.0194994 52.0448 0.0365338 52.4296 0.17079C52.8144 0.305046 53.1685 0.51481 53.4711 0.787797C54.9015 2.02915 54.9696 3.78322 53.6455 5.28172Z" fill="#74BCE8"/>
<path d="M72.0184 7.46813C71.0822 8.47749 69.7769 8.55856 68.8062 7.66763C68.5793 7.46741 68.3957 7.22298 68.2665 6.9493C68.1374 6.67563 68.0655 6.37847 68.0552 6.07603C68.045 5.7736 68.0966 5.47224 68.2068 5.19044C68.3171 4.90864 68.4838 4.65232 68.6966 4.43718C69.6182 3.41851 70.9088 3.34371 71.8964 4.25174C72.1268 4.4479 72.3139 4.68972 72.4459 4.96194C72.578 5.23415 72.6521 5.53081 72.6635 5.83313C72.675 6.13546 72.6236 6.43688 72.5125 6.71832C72.4015 6.99975 72.2333 7.25508 72.0184 7.46813Z" fill="#74BCE8"/>
<path d="M61.7828 11.0634C62.7137 11.9067 62.7639 13.0715 61.9095 14.0028C61.5275 14.3938 61.0107 14.6244 60.4646 14.6475C59.9184 14.6706 59.384 14.4844 58.9703 14.1271C58.2015 13.4462 58.1568 11.9699 58.8809 11.1708C59.0604 10.9668 59.2796 10.8014 59.5251 10.6849C59.7706 10.5684 60.0372 10.5031 60.3088 10.4931C60.5803 10.483 60.8511 10.5284 61.1045 10.6265C61.3579 10.7245 61.5887 10.8732 61.7828 11.0634Z" fill="#74BCE8"/>
</g>
<path d="M40.0149 49.7582C36.8244 49.8634 33.6653 49.0996 30.8752 47.5485C27.8523 45.9006 25.4144 43.709 23.711 40.8643C22.5578 38.9583 21.8234 36.8288 21.5565 34.6171C21.4852 34.0982 21.4739 33.5727 21.523 33.0512C21.6273 32.1294 22.2154 31.471 23.0724 31.0205C24.3008 30.3838 25.6422 29.9942 27.0206 29.8738C29.6325 29.623 32.1538 30.0437 34.6275 30.7782C35.3875 31.0356 36.1767 31.1969 36.9767 31.2582C37.8951 31.2888 38.8113 31.1524 39.681 30.8558C41.7118 30.1894 43.7453 29.53 45.7815 28.8776C47.4928 28.362 49.2845 28.1665 51.0668 28.3009C52.3923 28.3503 53.7019 28.6079 54.9474 29.0643C56.8804 29.8042 57.8985 31.1482 58.1692 33.0317C58.3435 34.484 58.1587 35.9568 57.6311 37.321C56.7381 39.9762 55.2246 42.3802 53.2161 44.3331C50.8699 46.6454 47.9608 48.3053 44.7765 49.1488C43.218 49.5344 41.6203 49.7389 40.0149 49.7582Z" fill="#7058CF"/>
<defs>
<filter id="filter0_d_762_28913" x="12" y="7.26562" width="55.7344" height="55.7344" filterUnits="userSpaceOnUse" color-interpolation-filters="sRGB">
<feFlood flood-opacity="0" result="BackgroundImageFix"/>
<feColorMatrix in="SourceAlpha" type="matrix" values="0 0 0 0 0 0 0 0 0 0 0 0 0 0 0 0 0 0 127 0" result="hardAlpha"/>
<feOffset dy="4"/>
<feGaussianBlur stdDeviation="2"/>
<feComposite in2="hardAlpha" operator="out"/>
<feColorMatrix type="matrix" values="0 0 0 0 0 0 0 0 0 0 0 0 0 0 0 0 0 0 0.25 0"/>
<feBlend mode="normal" in2="BackgroundImageFix" result="effect1_dropShadow_762_28913"/>
<feBlend mode="normal" in="SourceGraphic" in2="effect1_dropShadow_762_28913" result="shape"/>
</filter>
<filter id="filter1_d_762_28913" x="44.342" y="0" width="32.3231" height="22.6494" filterUnits="userSpaceOnUse" color-interpolation-filters="sRGB">
<feFlood flood-opacity="0" result="BackgroundImageFix"/>
<feColorMatrix in="SourceAlpha" type="matrix" values="0 0 0 0 0 0 0 0 0 0 0 0 0 0 0 0 0 0 127 0" result="hardAlpha"/>
<feOffset dy="4"/>
<feGaussianBlur stdDeviation="2"/>
<feComposite in2="hardAlpha" operator="out"/>
<feColorMatrix type="matrix" values="0 0 0 0 0 0 0 0 0 0 0 0 0 0 0 0 0 0 0.25 0"/>
<feBlend mode="normal" in2="BackgroundImageFix" result="effect1_dropShadow_762_28913"/>
<feBlend mode="normal" in="SourceGraphic" in2="effect1_dropShadow_762_28913" result="shape"/>
</filter>
</defs>
</svg>
